<mxfile host="Electron" agent="Mozilla/5.0 (Windows NT 10.0; Win64; x64) AppleWebKit/537.36 (KHTML, like Gecko) draw.io/24.7.5 Chrome/126.0.6478.183 Electron/31.3.0 Safari/537.36" version="24.7.5">
  <diagram name="Page-1" id="2YBvvXClWsGukQMizWep">
    <mxGraphModel dx="1050" dy="621" grid="1" gridSize="10" guides="1" tooltips="1" connect="1" arrows="1" fold="1" page="1" pageScale="1" pageWidth="850" pageHeight="1100" math="0" shadow="0">
      <root>
        <mxCell id="0" />
        <mxCell id="1" parent="0" />
        <mxCell id="aM9ryv3xv72pqoxQDRHE-1" value="LeagueLeaders" style="shape=umlLifeline;perimeter=lifelinePerimeter;whiteSpace=wrap;html=1;container=0;dropTarget=0;collapsible=0;recursiveResize=0;outlineConnect=0;portConstraint=eastwest;newEdgeStyle={&quot;edgeStyle&quot;:&quot;elbowEdgeStyle&quot;,&quot;elbow&quot;:&quot;vertical&quot;,&quot;curved&quot;:0,&quot;rounded&quot;:0};" parent="1" vertex="1">
          <mxGeometry x="40" y="40" width="100" height="960" as="geometry" />
        </mxCell>
        <mxCell id="aM9ryv3xv72pqoxQDRHE-2" value="" style="html=1;points=[];perimeter=orthogonalPerimeter;outlineConnect=0;targetShapes=umlLifeline;portConstraint=eastwest;newEdgeStyle={&quot;edgeStyle&quot;:&quot;elbowEdgeStyle&quot;,&quot;elbow&quot;:&quot;vertical&quot;,&quot;curved&quot;:0,&quot;rounded&quot;:0};" parent="aM9ryv3xv72pqoxQDRHE-1" vertex="1">
          <mxGeometry x="45" y="70" width="10" height="870" as="geometry" />
        </mxCell>
        <mxCell id="aM9ryv3xv72pqoxQDRHE-3" value="sync" style="html=1;verticalAlign=bottom;startArrow=oval;endArrow=block;startSize=8;edgeStyle=elbowEdgeStyle;elbow=vertical;curved=0;rounded=0;" parent="aM9ryv3xv72pqoxQDRHE-1" target="aM9ryv3xv72pqoxQDRHE-2" edge="1">
          <mxGeometry relative="1" as="geometry">
            <mxPoint x="-15" y="70" as="sourcePoint" />
          </mxGeometry>
        </mxCell>
        <mxCell id="tpP_tcnSKTiBDktZdVf1-73" value="" style="html=1;points=[[0,0,0,0,5],[0,1,0,0,-5],[1,0,0,0,5],[1,1,0,0,-5]];perimeter=orthogonalPerimeter;outlineConnect=0;targetShapes=umlLifeline;portConstraint=eastwest;newEdgeStyle={&quot;curved&quot;:0,&quot;rounded&quot;:0};" parent="aM9ryv3xv72pqoxQDRHE-1" vertex="1">
          <mxGeometry x="55" y="310" width="10" height="140" as="geometry" />
        </mxCell>
        <mxCell id="tpP_tcnSKTiBDktZdVf1-74" value="" style="html=1;points=[[0,0,0,0,5],[0,1,0,0,-5],[1,0,0,0,5],[1,1,0,0,-5]];perimeter=orthogonalPerimeter;outlineConnect=0;targetShapes=umlLifeline;portConstraint=eastwest;newEdgeStyle={&quot;curved&quot;:0,&quot;rounded&quot;:0};" parent="aM9ryv3xv72pqoxQDRHE-1" vertex="1">
          <mxGeometry x="55" y="470" width="10" height="380" as="geometry" />
        </mxCell>
        <mxCell id="tpP_tcnSKTiBDktZdVf1-76" value="" style="html=1;points=[[0,0,0,0,5],[0,1,0,0,-5],[1,0,0,0,5],[1,1,0,0,-5]];perimeter=orthogonalPerimeter;outlineConnect=0;targetShapes=umlLifeline;portConstraint=eastwest;newEdgeStyle={&quot;curved&quot;:0,&quot;rounded&quot;:0};" parent="aM9ryv3xv72pqoxQDRHE-1" vertex="1">
          <mxGeometry x="65" y="710" width="10" height="140" as="geometry" />
        </mxCell>
        <mxCell id="aM9ryv3xv72pqoxQDRHE-5" value="SoccerAPI" style="shape=umlLifeline;perimeter=lifelinePerimeter;whiteSpace=wrap;html=1;container=0;dropTarget=0;collapsible=0;recursiveResize=0;outlineConnect=0;portConstraint=eastwest;newEdgeStyle={&quot;edgeStyle&quot;:&quot;elbowEdgeStyle&quot;,&quot;elbow&quot;:&quot;vertical&quot;,&quot;curved&quot;:0,&quot;rounded&quot;:0};" parent="1" vertex="1">
          <mxGeometry x="375" y="40" width="100" height="960" as="geometry" />
        </mxCell>
        <mxCell id="aM9ryv3xv72pqoxQDRHE-6" value="" style="html=1;points=[];perimeter=orthogonalPerimeter;outlineConnect=0;targetShapes=umlLifeline;portConstraint=eastwest;newEdgeStyle={&quot;edgeStyle&quot;:&quot;elbowEdgeStyle&quot;,&quot;elbow&quot;:&quot;vertical&quot;,&quot;curved&quot;:0,&quot;rounded&quot;:0};" parent="aM9ryv3xv72pqoxQDRHE-5" vertex="1">
          <mxGeometry x="45" y="80" width="10" height="40" as="geometry" />
        </mxCell>
        <mxCell id="Icg1rdPyRD9tY1b1fIsP-5" value="" style="html=1;points=[];perimeter=orthogonalPerimeter;outlineConnect=0;targetShapes=umlLifeline;portConstraint=eastwest;newEdgeStyle={&quot;edgeStyle&quot;:&quot;elbowEdgeStyle&quot;,&quot;elbow&quot;:&quot;vertical&quot;,&quot;curved&quot;:0,&quot;rounded&quot;:0};" parent="aM9ryv3xv72pqoxQDRHE-5" vertex="1">
          <mxGeometry x="45" y="160" width="10" height="40" as="geometry" />
        </mxCell>
        <mxCell id="Icg1rdPyRD9tY1b1fIsP-10" value="" style="html=1;points=[];perimeter=orthogonalPerimeter;outlineConnect=0;targetShapes=umlLifeline;portConstraint=eastwest;newEdgeStyle={&quot;edgeStyle&quot;:&quot;elbowEdgeStyle&quot;,&quot;elbow&quot;:&quot;vertical&quot;,&quot;curved&quot;:0,&quot;rounded&quot;:0};" parent="aM9ryv3xv72pqoxQDRHE-5" vertex="1">
          <mxGeometry x="45" y="240" width="10" height="40" as="geometry" />
        </mxCell>
        <mxCell id="tpP_tcnSKTiBDktZdVf1-3" value="&lt;span style=&quot;color: rgba(0, 0, 0, 0); font-family: monospace; font-size: 0px; text-align: start;&quot;&gt;%3CmxGraphModel%3E%3Croot%3E%3CmxCell%20id%3D%220%22%2F%3E%3CmxCell%20id%3D%221%22%20parent%3D%220%22%2F%3E%3CmxCell%20id%3D%222%22%20value%3D%22%22%20style%3D%22html%3D1%3BverticalAlign%3Dbottom%3BendArrow%3Dblock%3BedgeStyle%3DelbowEdgeStyle%3Belbow%3Dvertical%3Bcurved%3D0%3Brounded%3D0%3B%22%20edge%3D%221%22%20parent%3D%221%22%3E%3CmxGeometry%20relative%3D%221%22%20as%3D%22geometry%22%3E%3CmxPoint%20x%3D%2295%22%20y%3D%22360%22%20as%3D%22sourcePoint%22%2F%3E%3CArray%20as%3D%22points%22%3E%3CmxPoint%20x%3D%22195%22%20y%3D%22360%22%2F%3E%3C%2FArray%3E%3CmxPoint%20x%3D%22360%22%20y%3D%22360%22%20as%3D%22targetPoint%22%2F%3E%3CmxPoint%20as%3D%22offset%22%2F%3E%3C%2FmxGeometry%3E%3C%2FmxCell%3E%3CmxCell%20id%3D%223%22%20value%3D%22get_season_competitor_players()%22%20style%3D%22edgeLabel%3Bhtml%3D1%3Balign%3Dcenter%3BverticalAlign%3Dmiddle%3Bresizable%3D0%3Bpoints%3D%5B%5D%3B%22%20vertex%3D%221%22%20connectable%3D%220%22%20parent%3D%222%22%3E%3CmxGeometry%20x%3D%22-0.4275%22%20y%3D%222%22%20relative%3D%221%22%20as%3D%22geometry%22%3E%3CmxPoint%20x%3D%2249%22%20y%3D%222%22%20as%3D%22offset%22%2F%3E%3C%2FmxGeometry%3E%3C%2FmxCell%3E%3C%2Froot%3E%3C%2FmxGraphModel%3E&lt;/span&gt;" style="html=1;points=[];perimeter=orthogonalPerimeter;outlineConnect=0;targetShapes=umlLifeline;portConstraint=eastwest;newEdgeStyle={&quot;edgeStyle&quot;:&quot;elbowEdgeStyle&quot;,&quot;elbow&quot;:&quot;vertical&quot;,&quot;curved&quot;:0,&quot;rounded&quot;:0};" parent="aM9ryv3xv72pqoxQDRHE-5" vertex="1">
          <mxGeometry x="45" y="320" width="10" height="40" as="geometry" />
        </mxCell>
        <mxCell id="tpP_tcnSKTiBDktZdVf1-18" value="&lt;span style=&quot;color: rgba(0, 0, 0, 0); font-family: monospace; font-size: 0px; text-align: start;&quot;&gt;%3CmxGraphModel%3E%3Croot%3E%3CmxCell%20id%3D%220%22%2F%3E%3CmxCell%20id%3D%221%22%20parent%3D%220%22%2F%3E%3CmxCell%20id%3D%222%22%20value%3D%22%22%20style%3D%22html%3D1%3BverticalAlign%3Dbottom%3BendArrow%3Dblock%3BedgeStyle%3DelbowEdgeStyle%3Belbow%3Dvertical%3Bcurved%3D0%3Brounded%3D0%3B%22%20edge%3D%221%22%20parent%3D%221%22%3E%3CmxGeometry%20relative%3D%221%22%20as%3D%22geometry%22%3E%3CmxPoint%20x%3D%2295%22%20y%3D%22360%22%20as%3D%22sourcePoint%22%2F%3E%3CArray%20as%3D%22points%22%3E%3CmxPoint%20x%3D%22195%22%20y%3D%22360%22%2F%3E%3C%2FArray%3E%3CmxPoint%20x%3D%22360%22%20y%3D%22360%22%20as%3D%22targetPoint%22%2F%3E%3CmxPoint%20as%3D%22offset%22%2F%3E%3C%2FmxGeometry%3E%3C%2FmxCell%3E%3CmxCell%20id%3D%223%22%20value%3D%22get_season_competitor_players()%22%20style%3D%22edgeLabel%3Bhtml%3D1%3Balign%3Dcenter%3BverticalAlign%3Dmiddle%3Bresizable%3D0%3Bpoints%3D%5B%5D%3B%22%20vertex%3D%221%22%20connectable%3D%220%22%20parent%3D%222%22%3E%3CmxGeometry%20x%3D%22-0.4275%22%20y%3D%222%22%20relative%3D%221%22%20as%3D%22geometry%22%3E%3CmxPoint%20x%3D%2249%22%20y%3D%222%22%20as%3D%22offset%22%2F%3E%3C%2FmxGeometry%3E%3C%2FmxCell%3E%3C%2Froot%3E%3C%2FmxGraphModel%3E&lt;/span&gt;" style="html=1;points=[];perimeter=orthogonalPerimeter;outlineConnect=0;targetShapes=umlLifeline;portConstraint=eastwest;newEdgeStyle={&quot;edgeStyle&quot;:&quot;elbowEdgeStyle&quot;,&quot;elbow&quot;:&quot;vertical&quot;,&quot;curved&quot;:0,&quot;rounded&quot;:0};" parent="aM9ryv3xv72pqoxQDRHE-5" vertex="1">
          <mxGeometry x="45" y="400" width="10" height="40" as="geometry" />
        </mxCell>
        <mxCell id="tpP_tcnSKTiBDktZdVf1-27" value="&lt;span style=&quot;color: rgba(0, 0, 0, 0); font-family: monospace; font-size: 0px; text-align: start;&quot;&gt;%3CmxGraphModel%3E%3Croot%3E%3CmxCell%20id%3D%220%22%2F%3E%3CmxCell%20id%3D%221%22%20parent%3D%220%22%2F%3E%3CmxCell%20id%3D%222%22%20value%3D%22%22%20style%3D%22html%3D1%3BverticalAlign%3Dbottom%3BendArrow%3Dblock%3BedgeStyle%3DelbowEdgeStyle%3Belbow%3Dvertical%3Bcurved%3D0%3Brounded%3D0%3B%22%20edge%3D%221%22%20parent%3D%221%22%3E%3CmxGeometry%20relative%3D%221%22%20as%3D%22geometry%22%3E%3CmxPoint%20x%3D%2295%22%20y%3D%22360%22%20as%3D%22sourcePoint%22%2F%3E%3CArray%20as%3D%22points%22%3E%3CmxPoint%20x%3D%22195%22%20y%3D%22360%22%2F%3E%3C%2FArray%3E%3CmxPoint%20x%3D%22360%22%20y%3D%22360%22%20as%3D%22targetPoint%22%2F%3E%3CmxPoint%20as%3D%22offset%22%2F%3E%3C%2FmxGeometry%3E%3C%2FmxCell%3E%3CmxCell%20id%3D%223%22%20value%3D%22get_season_competitor_players()%22%20style%3D%22edgeLabel%3Bhtml%3D1%3Balign%3Dcenter%3BverticalAlign%3Dmiddle%3Bresizable%3D0%3Bpoints%3D%5B%5D%3B%22%20vertex%3D%221%22%20connectable%3D%220%22%20parent%3D%222%22%3E%3CmxGeometry%20x%3D%22-0.4275%22%20y%3D%222%22%20relative%3D%221%22%20as%3D%22geometry%22%3E%3CmxPoint%20x%3D%2249%22%20y%3D%222%22%20as%3D%22offset%22%2F%3E%3C%2FmxGeometry%3E%3C%2FmxCell%3E%3C%2Froot%3E%3C%2FmxGraphModel%3E&lt;/span&gt;" style="html=1;points=[];perimeter=orthogonalPerimeter;outlineConnect=0;targetShapes=umlLifeline;portConstraint=eastwest;newEdgeStyle={&quot;edgeStyle&quot;:&quot;elbowEdgeStyle&quot;,&quot;elbow&quot;:&quot;vertical&quot;,&quot;curved&quot;:0,&quot;rounded&quot;:0};" parent="aM9ryv3xv72pqoxQDRHE-5" vertex="1">
          <mxGeometry x="45" y="480" width="10" height="40" as="geometry" />
        </mxCell>
        <mxCell id="tpP_tcnSKTiBDktZdVf1-51" value="&lt;span style=&quot;color: rgba(0, 0, 0, 0); font-family: monospace; font-size: 0px; text-align: start;&quot;&gt;%3CmxGraphModel%3E%3Croot%3E%3CmxCell%20id%3D%220%22%2F%3E%3CmxCell%20id%3D%221%22%20parent%3D%220%22%2F%3E%3CmxCell%20id%3D%222%22%20value%3D%22%22%20style%3D%22html%3D1%3BverticalAlign%3Dbottom%3BendArrow%3Dblock%3BedgeStyle%3DelbowEdgeStyle%3Belbow%3Dvertical%3Bcurved%3D0%3Brounded%3D0%3B%22%20edge%3D%221%22%20parent%3D%221%22%3E%3CmxGeometry%20relative%3D%221%22%20as%3D%22geometry%22%3E%3CmxPoint%20x%3D%2295%22%20y%3D%22360%22%20as%3D%22sourcePoint%22%2F%3E%3CArray%20as%3D%22points%22%3E%3CmxPoint%20x%3D%22195%22%20y%3D%22360%22%2F%3E%3C%2FArray%3E%3CmxPoint%20x%3D%22360%22%20y%3D%22360%22%20as%3D%22targetPoint%22%2F%3E%3CmxPoint%20as%3D%22offset%22%2F%3E%3C%2FmxGeometry%3E%3C%2FmxCell%3E%3CmxCell%20id%3D%223%22%20value%3D%22get_season_competitor_players()%22%20style%3D%22edgeLabel%3Bhtml%3D1%3Balign%3Dcenter%3BverticalAlign%3Dmiddle%3Bresizable%3D0%3Bpoints%3D%5B%5D%3B%22%20vertex%3D%221%22%20connectable%3D%220%22%20parent%3D%222%22%3E%3CmxGeometry%20x%3D%22-0.4275%22%20y%3D%222%22%20relative%3D%221%22%20as%3D%22geometry%22%3E%3CmxPoint%20x%3D%2249%22%20y%3D%222%22%20as%3D%22offset%22%2F%3E%3C%2FmxGeometry%3E%3C%2FmxCell%3E%3C%2Froot%3E%3C%2FmxGraphModel%3E&lt;/span&gt;" style="html=1;points=[];perimeter=orthogonalPerimeter;outlineConnect=0;targetShapes=umlLifeline;portConstraint=eastwest;newEdgeStyle={&quot;edgeStyle&quot;:&quot;elbowEdgeStyle&quot;,&quot;elbow&quot;:&quot;vertical&quot;,&quot;curved&quot;:0,&quot;rounded&quot;:0};" parent="aM9ryv3xv72pqoxQDRHE-5" vertex="1">
          <mxGeometry x="45" y="560" width="10" height="40" as="geometry" />
        </mxCell>
        <mxCell id="tpP_tcnSKTiBDktZdVf1-58" value="&lt;span style=&quot;color: rgba(0, 0, 0, 0); font-family: monospace; font-size: 0px; text-align: start;&quot;&gt;%3CmxGraphModel%3E%3Croot%3E%3CmxCell%20id%3D%220%22%2F%3E%3CmxCell%20id%3D%221%22%20parent%3D%220%22%2F%3E%3CmxCell%20id%3D%222%22%20value%3D%22%22%20style%3D%22html%3D1%3BverticalAlign%3Dbottom%3BendArrow%3Dblock%3BedgeStyle%3DelbowEdgeStyle%3Belbow%3Dvertical%3Bcurved%3D0%3Brounded%3D0%3B%22%20edge%3D%221%22%20parent%3D%221%22%3E%3CmxGeometry%20relative%3D%221%22%20as%3D%22geometry%22%3E%3CmxPoint%20x%3D%2295%22%20y%3D%22360%22%20as%3D%22sourcePoint%22%2F%3E%3CArray%20as%3D%22points%22%3E%3CmxPoint%20x%3D%22195%22%20y%3D%22360%22%2F%3E%3C%2FArray%3E%3CmxPoint%20x%3D%22360%22%20y%3D%22360%22%20as%3D%22targetPoint%22%2F%3E%3CmxPoint%20as%3D%22offset%22%2F%3E%3C%2FmxGeometry%3E%3C%2FmxCell%3E%3CmxCell%20id%3D%223%22%20value%3D%22get_season_competitor_players()%22%20style%3D%22edgeLabel%3Bhtml%3D1%3Balign%3Dcenter%3BverticalAlign%3Dmiddle%3Bresizable%3D0%3Bpoints%3D%5B%5D%3B%22%20vertex%3D%221%22%20connectable%3D%220%22%20parent%3D%222%22%3E%3CmxGeometry%20x%3D%22-0.4275%22%20y%3D%222%22%20relative%3D%221%22%20as%3D%22geometry%22%3E%3CmxPoint%20x%3D%2249%22%20y%3D%222%22%20as%3D%22offset%22%2F%3E%3C%2FmxGeometry%3E%3C%2FmxCell%3E%3C%2Froot%3E%3C%2FmxGraphModel%3E&lt;/span&gt;" style="html=1;points=[];perimeter=orthogonalPerimeter;outlineConnect=0;targetShapes=umlLifeline;portConstraint=eastwest;newEdgeStyle={&quot;edgeStyle&quot;:&quot;elbowEdgeStyle&quot;,&quot;elbow&quot;:&quot;vertical&quot;,&quot;curved&quot;:0,&quot;rounded&quot;:0};" parent="aM9ryv3xv72pqoxQDRHE-5" vertex="1">
          <mxGeometry x="45" y="640" width="10" height="40" as="geometry" />
        </mxCell>
        <mxCell id="tpP_tcnSKTiBDktZdVf1-61" value="&lt;span style=&quot;color: rgba(0, 0, 0, 0); font-family: monospace; font-size: 0px; text-align: start;&quot;&gt;%3CmxGraphModel%3E%3Croot%3E%3CmxCell%20id%3D%220%22%2F%3E%3CmxCell%20id%3D%221%22%20parent%3D%220%22%2F%3E%3CmxCell%20id%3D%222%22%20value%3D%22%22%20style%3D%22html%3D1%3BverticalAlign%3Dbottom%3BendArrow%3Dblock%3BedgeStyle%3DelbowEdgeStyle%3Belbow%3Dvertical%3Bcurved%3D0%3Brounded%3D0%3B%22%20edge%3D%221%22%20parent%3D%221%22%3E%3CmxGeometry%20relative%3D%221%22%20as%3D%22geometry%22%3E%3CmxPoint%20x%3D%2295%22%20y%3D%22360%22%20as%3D%22sourcePoint%22%2F%3E%3CArray%20as%3D%22points%22%3E%3CmxPoint%20x%3D%22195%22%20y%3D%22360%22%2F%3E%3C%2FArray%3E%3CmxPoint%20x%3D%22360%22%20y%3D%22360%22%20as%3D%22targetPoint%22%2F%3E%3CmxPoint%20as%3D%22offset%22%2F%3E%3C%2FmxGeometry%3E%3C%2FmxCell%3E%3CmxCell%20id%3D%223%22%20value%3D%22get_season_competitor_players()%22%20style%3D%22edgeLabel%3Bhtml%3D1%3Balign%3Dcenter%3BverticalAlign%3Dmiddle%3Bresizable%3D0%3Bpoints%3D%5B%5D%3B%22%20vertex%3D%221%22%20connectable%3D%220%22%20parent%3D%222%22%3E%3CmxGeometry%20x%3D%22-0.4275%22%20y%3D%222%22%20relative%3D%221%22%20as%3D%22geometry%22%3E%3CmxPoint%20x%3D%2249%22%20y%3D%222%22%20as%3D%22offset%22%2F%3E%3C%2FmxGeometry%3E%3C%2FmxCell%3E%3C%2Froot%3E%3C%2FmxGraphModel%3E&lt;/span&gt;" style="html=1;points=[];perimeter=orthogonalPerimeter;outlineConnect=0;targetShapes=umlLifeline;portConstraint=eastwest;newEdgeStyle={&quot;edgeStyle&quot;:&quot;elbowEdgeStyle&quot;,&quot;elbow&quot;:&quot;vertical&quot;,&quot;curved&quot;:0,&quot;rounded&quot;:0};" parent="aM9ryv3xv72pqoxQDRHE-5" vertex="1">
          <mxGeometry x="45" y="800" width="10" height="40" as="geometry" />
        </mxCell>
        <mxCell id="tpP_tcnSKTiBDktZdVf1-68" value="&lt;span style=&quot;color: rgba(0, 0, 0, 0); font-family: monospace; font-size: 0px; text-align: start;&quot;&gt;%3CmxGraphModel%3E%3Croot%3E%3CmxCell%20id%3D%220%22%2F%3E%3CmxCell%20id%3D%221%22%20parent%3D%220%22%2F%3E%3CmxCell%20id%3D%222%22%20value%3D%22%22%20style%3D%22html%3D1%3BverticalAlign%3Dbottom%3BendArrow%3Dblock%3BedgeStyle%3DelbowEdgeStyle%3Belbow%3Dvertical%3Bcurved%3D0%3Brounded%3D0%3B%22%20edge%3D%221%22%20parent%3D%221%22%3E%3CmxGeometry%20relative%3D%221%22%20as%3D%22geometry%22%3E%3CmxPoint%20x%3D%2295%22%20y%3D%22360%22%20as%3D%22sourcePoint%22%2F%3E%3CArray%20as%3D%22points%22%3E%3CmxPoint%20x%3D%22195%22%20y%3D%22360%22%2F%3E%3C%2FArray%3E%3CmxPoint%20x%3D%22360%22%20y%3D%22360%22%20as%3D%22targetPoint%22%2F%3E%3CmxPoint%20as%3D%22offset%22%2F%3E%3C%2FmxGeometry%3E%3C%2FmxCell%3E%3CmxCell%20id%3D%223%22%20value%3D%22get_season_competitor_players()%22%20style%3D%22edgeLabel%3Bhtml%3D1%3Balign%3Dcenter%3BverticalAlign%3Dmiddle%3Bresizable%3D0%3Bpoints%3D%5B%5D%3B%22%20vertex%3D%221%22%20connectable%3D%220%22%20parent%3D%222%22%3E%3CmxGeometry%20x%3D%22-0.4275%22%20y%3D%222%22%20relative%3D%221%22%20as%3D%22geometry%22%3E%3CmxPoint%20x%3D%2249%22%20y%3D%222%22%20as%3D%22offset%22%2F%3E%3C%2FmxGeometry%3E%3C%2FmxCell%3E%3C%2Froot%3E%3C%2FmxGraphModel%3E&lt;/span&gt;" style="html=1;points=[];perimeter=orthogonalPerimeter;outlineConnect=0;targetShapes=umlLifeline;portConstraint=eastwest;newEdgeStyle={&quot;edgeStyle&quot;:&quot;elbowEdgeStyle&quot;,&quot;elbow&quot;:&quot;vertical&quot;,&quot;curved&quot;:0,&quot;rounded&quot;:0};" parent="aM9ryv3xv72pqoxQDRHE-5" vertex="1">
          <mxGeometry x="45" y="720" width="10" height="40" as="geometry" />
        </mxCell>
        <mxCell id="tpP_tcnSKTiBDktZdVf1-81" value="&lt;span style=&quot;color: rgba(0, 0, 0, 0); font-family: monospace; font-size: 0px; text-align: start;&quot;&gt;%3CmxGraphModel%3E%3Croot%3E%3CmxCell%20id%3D%220%22%2F%3E%3CmxCell%20id%3D%221%22%20parent%3D%220%22%2F%3E%3CmxCell%20id%3D%222%22%20value%3D%22%22%20style%3D%22html%3D1%3BverticalAlign%3Dbottom%3BendArrow%3Dblock%3BedgeStyle%3DelbowEdgeStyle%3Belbow%3Dvertical%3Bcurved%3D0%3Brounded%3D0%3B%22%20edge%3D%221%22%20parent%3D%221%22%3E%3CmxGeometry%20relative%3D%221%22%20as%3D%22geometry%22%3E%3CmxPoint%20x%3D%2295%22%20y%3D%22360%22%20as%3D%22sourcePoint%22%2F%3E%3CArray%20as%3D%22points%22%3E%3CmxPoint%20x%3D%22195%22%20y%3D%22360%22%2F%3E%3C%2FArray%3E%3CmxPoint%20x%3D%22360%22%20y%3D%22360%22%20as%3D%22targetPoint%22%2F%3E%3CmxPoint%20as%3D%22offset%22%2F%3E%3C%2FmxGeometry%3E%3C%2FmxCell%3E%3CmxCell%20id%3D%223%22%20value%3D%22get_season_competitor_players()%22%20style%3D%22edgeLabel%3Bhtml%3D1%3Balign%3Dcenter%3BverticalAlign%3Dmiddle%3Bresizable%3D0%3Bpoints%3D%5B%5D%3B%22%20vertex%3D%221%22%20connectable%3D%220%22%20parent%3D%222%22%3E%3CmxGeometry%20x%3D%22-0.4275%22%20y%3D%222%22%20relative%3D%221%22%20as%3D%22geometry%22%3E%3CmxPoint%20x%3D%2249%22%20y%3D%222%22%20as%3D%22offset%22%2F%3E%3C%2FmxGeometry%3E%3C%2FmxCell%3E%3C%2Froot%3E%3C%2FmxGraphModel%3E&lt;/span&gt;" style="html=1;points=[];perimeter=orthogonalPerimeter;outlineConnect=0;targetShapes=umlLifeline;portConstraint=eastwest;newEdgeStyle={&quot;edgeStyle&quot;:&quot;elbowEdgeStyle&quot;,&quot;elbow&quot;:&quot;vertical&quot;,&quot;curved&quot;:0,&quot;rounded&quot;:0};" parent="aM9ryv3xv72pqoxQDRHE-5" vertex="1">
          <mxGeometry x="45" y="880" width="10" height="40" as="geometry" />
        </mxCell>
        <mxCell id="aM9ryv3xv72pqoxQDRHE-7" value="" style="html=1;verticalAlign=bottom;endArrow=block;edgeStyle=elbowEdgeStyle;elbow=vertical;curved=0;rounded=0;" parent="1" source="aM9ryv3xv72pqoxQDRHE-2" target="aM9ryv3xv72pqoxQDRHE-6" edge="1">
          <mxGeometry relative="1" as="geometry">
            <mxPoint x="195" y="130" as="sourcePoint" />
            <Array as="points">
              <mxPoint x="180" y="120" />
            </Array>
            <mxPoint as="offset" />
            <mxPoint x="340" y="120" as="targetPoint" />
          </mxGeometry>
        </mxCell>
        <mxCell id="Icg1rdPyRD9tY1b1fIsP-1" value="[sr:competition:7] getСompetitions() -&amp;gt; Competotion" style="edgeLabel;html=1;align=center;verticalAlign=middle;resizable=0;points=[];" parent="aM9ryv3xv72pqoxQDRHE-7" vertex="1" connectable="0">
          <mxGeometry x="-0.4275" y="2" relative="1" as="geometry">
            <mxPoint x="49" y="2" as="offset" />
          </mxGeometry>
        </mxCell>
        <mxCell id="aM9ryv3xv72pqoxQDRHE-9" value="" style="html=1;verticalAlign=bottom;endArrow=block;edgeStyle=elbowEdgeStyle;elbow=vertical;curved=0;rounded=0;" parent="1" source="aM9ryv3xv72pqoxQDRHE-6" target="aM9ryv3xv72pqoxQDRHE-2" edge="1">
          <mxGeometry relative="1" as="geometry">
            <mxPoint x="175" y="160" as="sourcePoint" />
            <Array as="points">
              <mxPoint x="190" y="160" />
            </Array>
            <mxPoint x="100" y="160" as="targetPoint" />
          </mxGeometry>
        </mxCell>
        <mxCell id="Icg1rdPyRD9tY1b1fIsP-2" value="competiton.json" style="edgeLabel;html=1;align=center;verticalAlign=middle;resizable=0;points=[];" parent="aM9ryv3xv72pqoxQDRHE-9" vertex="1" connectable="0">
          <mxGeometry x="0.0255" y="-1" relative="1" as="geometry">
            <mxPoint y="1" as="offset" />
          </mxGeometry>
        </mxCell>
        <mxCell id="Icg1rdPyRD9tY1b1fIsP-3" value="" style="html=1;verticalAlign=bottom;endArrow=block;edgeStyle=elbowEdgeStyle;elbow=vertical;curved=0;rounded=0;" parent="1" source="aM9ryv3xv72pqoxQDRHE-2" target="Icg1rdPyRD9tY1b1fIsP-5" edge="1">
          <mxGeometry relative="1" as="geometry">
            <mxPoint x="100" y="200" as="sourcePoint" />
            <Array as="points">
              <mxPoint x="180.5" y="200" />
            </Array>
            <mxPoint x="340" y="200" as="targetPoint" />
            <mxPoint as="offset" />
          </mxGeometry>
        </mxCell>
        <mxCell id="Icg1rdPyRD9tY1b1fIsP-4" value="[sr:season:119239] getSeasons() -&amp;gt; Season" style="edgeLabel;html=1;align=center;verticalAlign=middle;resizable=0;points=[];" parent="Icg1rdPyRD9tY1b1fIsP-3" vertex="1" connectable="0">
          <mxGeometry x="-0.4275" y="2" relative="1" as="geometry">
            <mxPoint x="54" y="2" as="offset" />
          </mxGeometry>
        </mxCell>
        <mxCell id="Icg1rdPyRD9tY1b1fIsP-6" value="" style="html=1;verticalAlign=bottom;endArrow=block;edgeStyle=elbowEdgeStyle;elbow=vertical;curved=0;rounded=0;" parent="1" source="Icg1rdPyRD9tY1b1fIsP-5" target="aM9ryv3xv72pqoxQDRHE-2" edge="1">
          <mxGeometry relative="1" as="geometry">
            <mxPoint x="270" y="240" as="sourcePoint" />
            <Array as="points">
              <mxPoint x="195" y="240" />
            </Array>
            <mxPoint x="100" y="240" as="targetPoint" />
          </mxGeometry>
        </mxCell>
        <mxCell id="Icg1rdPyRD9tY1b1fIsP-7" value="season.json" style="edgeLabel;html=1;align=center;verticalAlign=middle;resizable=0;points=[];" parent="Icg1rdPyRD9tY1b1fIsP-6" vertex="1" connectable="0">
          <mxGeometry x="0.0255" y="-1" relative="1" as="geometry">
            <mxPoint y="1" as="offset" />
          </mxGeometry>
        </mxCell>
        <mxCell id="Icg1rdPyRD9tY1b1fIsP-8" value="" style="html=1;verticalAlign=bottom;endArrow=block;edgeStyle=elbowEdgeStyle;elbow=vertical;curved=0;rounded=0;" parent="1" source="aM9ryv3xv72pqoxQDRHE-2" target="tpP_tcnSKTiBDktZdVf1-3" edge="1">
          <mxGeometry relative="1" as="geometry">
            <mxPoint x="100" y="360" as="sourcePoint" />
            <Array as="points">
              <mxPoint x="195" y="360" />
            </Array>
            <mxPoint x="330" y="360" as="targetPoint" />
            <mxPoint as="offset" />
          </mxGeometry>
        </mxCell>
        <mxCell id="Icg1rdPyRD9tY1b1fIsP-9" value="getCompetitors() -&amp;gt; Competitor[]" style="edgeLabel;html=1;align=center;verticalAlign=middle;resizable=0;points=[];" parent="Icg1rdPyRD9tY1b1fIsP-8" vertex="1" connectable="0">
          <mxGeometry x="-0.4275" y="2" relative="1" as="geometry">
            <mxPoint x="49" y="2" as="offset" />
          </mxGeometry>
        </mxCell>
        <mxCell id="Icg1rdPyRD9tY1b1fIsP-11" value="" style="html=1;verticalAlign=bottom;endArrow=block;edgeStyle=elbowEdgeStyle;elbow=vertical;curved=0;rounded=0;" parent="1" source="tpP_tcnSKTiBDktZdVf1-3" target="aM9ryv3xv72pqoxQDRHE-2" edge="1">
          <mxGeometry relative="1" as="geometry">
            <mxPoint x="330" y="400" as="sourcePoint" />
            <Array as="points">
              <mxPoint x="205" y="400" />
            </Array>
            <mxPoint x="100" y="400" as="targetPoint" />
          </mxGeometry>
        </mxCell>
        <mxCell id="Icg1rdPyRD9tY1b1fIsP-12" value="competitors.json" style="edgeLabel;html=1;align=center;verticalAlign=middle;resizable=0;points=[];" parent="Icg1rdPyRD9tY1b1fIsP-11" vertex="1" connectable="0">
          <mxGeometry x="0.0255" y="-1" relative="1" as="geometry">
            <mxPoint y="1" as="offset" />
          </mxGeometry>
        </mxCell>
        <mxCell id="Icg1rdPyRD9tY1b1fIsP-14" value="" style="html=1;verticalAlign=bottom;endArrow=block;edgeStyle=elbowEdgeStyle;elbow=vertical;curved=0;rounded=0;" parent="1" source="aM9ryv3xv72pqoxQDRHE-2" target="tpP_tcnSKTiBDktZdVf1-18" edge="1">
          <mxGeometry relative="1" as="geometry">
            <mxPoint x="100" y="440" as="sourcePoint" />
            <Array as="points">
              <mxPoint x="200" y="440" />
            </Array>
            <mxPoint x="330" y="440" as="targetPoint" />
            <mxPoint as="offset" />
          </mxGeometry>
        </mxCell>
        <mxCell id="Icg1rdPyRD9tY1b1fIsP-15" value="getPlayers() -&amp;gt; Player[]" style="edgeLabel;html=1;align=center;verticalAlign=middle;resizable=0;points=[];" parent="Icg1rdPyRD9tY1b1fIsP-14" vertex="1" connectable="0">
          <mxGeometry x="-0.4275" y="2" relative="1" as="geometry">
            <mxPoint x="49" y="2" as="offset" />
          </mxGeometry>
        </mxCell>
        <mxCell id="tpP_tcnSKTiBDktZdVf1-4" value="" style="html=1;verticalAlign=bottom;endArrow=block;edgeStyle=elbowEdgeStyle;elbow=vertical;curved=0;rounded=0;" parent="1" source="tpP_tcnSKTiBDktZdVf1-18" target="aM9ryv3xv72pqoxQDRHE-2" edge="1">
          <mxGeometry relative="1" as="geometry">
            <mxPoint x="364.5" y="480" as="sourcePoint" />
            <Array as="points">
              <mxPoint x="200" y="480" />
            </Array>
            <mxPoint x="100" y="480" as="targetPoint" />
          </mxGeometry>
        </mxCell>
        <mxCell id="tpP_tcnSKTiBDktZdVf1-5" value="players.json" style="edgeLabel;html=1;align=center;verticalAlign=middle;resizable=0;points=[];" parent="tpP_tcnSKTiBDktZdVf1-4" vertex="1" connectable="0">
          <mxGeometry x="0.0255" y="-1" relative="1" as="geometry">
            <mxPoint y="1" as="offset" />
          </mxGeometry>
        </mxCell>
        <mxCell id="tpP_tcnSKTiBDktZdVf1-10" value="" style="html=1;verticalAlign=bottom;endArrow=block;edgeStyle=elbowEdgeStyle;elbow=vertical;curved=0;rounded=0;" parent="1" target="tpP_tcnSKTiBDktZdVf1-61" edge="1">
          <mxGeometry relative="1" as="geometry">
            <mxPoint x="95" y="840" as="sourcePoint" />
            <Array as="points">
              <mxPoint x="220.5" y="840" />
            </Array>
            <mxPoint x="350" y="840" as="targetPoint" />
            <mxPoint as="offset" />
          </mxGeometry>
        </mxCell>
        <mxCell id="tpP_tcnSKTiBDktZdVf1-11" value="getPlayersStatistics() -&amp;gt; SportEventPlayerStatistics[]" style="edgeLabel;html=1;align=center;verticalAlign=middle;resizable=0;points=[];" parent="tpP_tcnSKTiBDktZdVf1-10" vertex="1" connectable="0">
          <mxGeometry x="-0.4275" y="2" relative="1" as="geometry">
            <mxPoint x="72" y="2" as="offset" />
          </mxGeometry>
        </mxCell>
        <mxCell id="tpP_tcnSKTiBDktZdVf1-20" value="" style="html=1;verticalAlign=bottom;endArrow=block;edgeStyle=elbowEdgeStyle;elbow=horizontal;curved=0;rounded=0;" parent="1" source="tpP_tcnSKTiBDktZdVf1-61" edge="1">
          <mxGeometry relative="1" as="geometry">
            <mxPoint x="360" y="880" as="sourcePoint" />
            <Array as="points">
              <mxPoint x="210" y="880" />
            </Array>
            <mxPoint x="95" y="880" as="targetPoint" />
          </mxGeometry>
        </mxCell>
        <mxCell id="tpP_tcnSKTiBDktZdVf1-21" value="playersStatistics.json" style="edgeLabel;html=1;align=center;verticalAlign=middle;resizable=0;points=[];" parent="tpP_tcnSKTiBDktZdVf1-20" vertex="1" connectable="0">
          <mxGeometry x="0.0255" y="-1" relative="1" as="geometry">
            <mxPoint y="1" as="offset" />
          </mxGeometry>
        </mxCell>
        <mxCell id="tpP_tcnSKTiBDktZdVf1-43" value="" style="html=1;verticalAlign=bottom;endArrow=block;edgeStyle=elbowEdgeStyle;elbow=vertical;curved=0;rounded=0;" parent="1" source="aM9ryv3xv72pqoxQDRHE-2" target="Icg1rdPyRD9tY1b1fIsP-10" edge="1">
          <mxGeometry relative="1" as="geometry">
            <mxPoint x="110" y="280" as="sourcePoint" />
            <Array as="points">
              <mxPoint x="190" y="280" />
            </Array>
            <mxPoint x="350" y="280" as="targetPoint" />
            <mxPoint as="offset" />
          </mxGeometry>
        </mxCell>
        <mxCell id="tpP_tcnSKTiBDktZdVf1-44" value="getStages() -&amp;gt; Stage[]" style="edgeLabel;html=1;align=center;verticalAlign=middle;resizable=0;points=[];" parent="tpP_tcnSKTiBDktZdVf1-43" vertex="1" connectable="0">
          <mxGeometry x="-0.4275" y="2" relative="1" as="geometry">
            <mxPoint x="49" y="2" as="offset" />
          </mxGeometry>
        </mxCell>
        <mxCell id="tpP_tcnSKTiBDktZdVf1-45" value="" style="html=1;verticalAlign=bottom;endArrow=block;edgeStyle=elbowEdgeStyle;elbow=vertical;curved=0;rounded=0;" parent="1" source="Icg1rdPyRD9tY1b1fIsP-10" target="aM9ryv3xv72pqoxQDRHE-2" edge="1">
          <mxGeometry relative="1" as="geometry">
            <mxPoint x="350" y="320" as="sourcePoint" />
            <Array as="points">
              <mxPoint x="190" y="320" />
            </Array>
            <mxPoint x="120" y="320" as="targetPoint" />
          </mxGeometry>
        </mxCell>
        <mxCell id="tpP_tcnSKTiBDktZdVf1-46" value="stages.json" style="edgeLabel;html=1;align=center;verticalAlign=middle;resizable=0;points=[];" parent="tpP_tcnSKTiBDktZdVf1-45" vertex="1" connectable="0">
          <mxGeometry x="0.0255" y="-1" relative="1" as="geometry">
            <mxPoint y="1" as="offset" />
          </mxGeometry>
        </mxCell>
        <mxCell id="tpP_tcnSKTiBDktZdVf1-47" value="" style="html=1;verticalAlign=bottom;endArrow=block;edgeStyle=elbowEdgeStyle;elbow=vertical;curved=0;rounded=0;" parent="1" source="aM9ryv3xv72pqoxQDRHE-2" target="tpP_tcnSKTiBDktZdVf1-51" edge="1">
          <mxGeometry relative="1" as="geometry">
            <mxPoint x="100" y="600" as="sourcePoint" />
            <Array as="points">
              <mxPoint x="225.5" y="600" />
            </Array>
            <mxPoint x="320" y="600" as="targetPoint" />
            <mxPoint as="offset" />
          </mxGeometry>
        </mxCell>
        <mxCell id="tpP_tcnSKTiBDktZdVf1-48" value="getReferees() -&amp;gt; Referee" style="edgeLabel;html=1;align=center;verticalAlign=middle;resizable=0;points=[];" parent="tpP_tcnSKTiBDktZdVf1-47" vertex="1" connectable="0">
          <mxGeometry x="-0.4275" y="2" relative="1" as="geometry">
            <mxPoint x="49" y="2" as="offset" />
          </mxGeometry>
        </mxCell>
        <mxCell id="tpP_tcnSKTiBDktZdVf1-52" value="" style="html=1;verticalAlign=bottom;endArrow=block;edgeStyle=elbowEdgeStyle;elbow=horizontal;curved=0;rounded=0;" parent="1" source="tpP_tcnSKTiBDktZdVf1-51" target="aM9ryv3xv72pqoxQDRHE-2" edge="1">
          <mxGeometry relative="1" as="geometry">
            <mxPoint x="320" y="650" as="sourcePoint" />
            <Array as="points">
              <mxPoint x="215" y="640" />
            </Array>
            <mxPoint x="100" y="640" as="targetPoint" />
          </mxGeometry>
        </mxCell>
        <mxCell id="tpP_tcnSKTiBDktZdVf1-53" value="referee.json" style="edgeLabel;html=1;align=center;verticalAlign=middle;resizable=0;points=[];" parent="tpP_tcnSKTiBDktZdVf1-52" vertex="1" connectable="0">
          <mxGeometry x="0.0255" y="-1" relative="1" as="geometry">
            <mxPoint y="1" as="offset" />
          </mxGeometry>
        </mxCell>
        <mxCell id="tpP_tcnSKTiBDktZdVf1-54" value="" style="html=1;verticalAlign=bottom;endArrow=block;edgeStyle=elbowEdgeStyle;elbow=vertical;curved=0;rounded=0;" parent="1" source="aM9ryv3xv72pqoxQDRHE-2" target="tpP_tcnSKTiBDktZdVf1-58" edge="1">
          <mxGeometry relative="1" as="geometry">
            <mxPoint x="100" y="680" as="sourcePoint" />
            <Array as="points">
              <mxPoint x="230.5" y="680" />
            </Array>
            <mxPoint x="340" y="690" as="targetPoint" />
            <mxPoint as="offset" />
          </mxGeometry>
        </mxCell>
        <mxCell id="tpP_tcnSKTiBDktZdVf1-55" value="getVenues() -&amp;gt; Venue" style="edgeLabel;html=1;align=center;verticalAlign=middle;resizable=0;points=[];" parent="tpP_tcnSKTiBDktZdVf1-54" vertex="1" connectable="0">
          <mxGeometry x="-0.4275" y="2" relative="1" as="geometry">
            <mxPoint x="49" y="2" as="offset" />
          </mxGeometry>
        </mxCell>
        <mxCell id="tpP_tcnSKTiBDktZdVf1-56" value="" style="html=1;verticalAlign=bottom;endArrow=block;edgeStyle=elbowEdgeStyle;elbow=horizontal;curved=0;rounded=0;" parent="1" source="tpP_tcnSKTiBDktZdVf1-58" target="aM9ryv3xv72pqoxQDRHE-2" edge="1">
          <mxGeometry relative="1" as="geometry">
            <mxPoint x="340" y="720" as="sourcePoint" />
            <Array as="points">
              <mxPoint x="220" y="720" />
            </Array>
            <mxPoint x="100" y="720" as="targetPoint" />
          </mxGeometry>
        </mxCell>
        <mxCell id="tpP_tcnSKTiBDktZdVf1-57" value="venue.json" style="edgeLabel;html=1;align=center;verticalAlign=middle;resizable=0;points=[];" parent="tpP_tcnSKTiBDktZdVf1-56" vertex="1" connectable="0">
          <mxGeometry x="0.0255" y="-1" relative="1" as="geometry">
            <mxPoint y="1" as="offset" />
          </mxGeometry>
        </mxCell>
        <mxCell id="tpP_tcnSKTiBDktZdVf1-62" value="" style="html=1;verticalAlign=bottom;endArrow=block;edgeStyle=elbowEdgeStyle;elbow=vertical;curved=0;rounded=0;" parent="1" source="aM9ryv3xv72pqoxQDRHE-2" target="tpP_tcnSKTiBDktZdVf1-27" edge="1">
          <mxGeometry relative="1" as="geometry">
            <mxPoint x="105" y="520" as="sourcePoint" />
            <Array as="points">
              <mxPoint x="210" y="520" />
            </Array>
            <mxPoint x="340" y="520" as="targetPoint" />
            <mxPoint as="offset" />
          </mxGeometry>
        </mxCell>
        <mxCell id="tpP_tcnSKTiBDktZdVf1-63" value="getSportEvents() -&amp;gt; SportEvent[]" style="edgeLabel;html=1;align=center;verticalAlign=middle;resizable=0;points=[];" parent="tpP_tcnSKTiBDktZdVf1-62" vertex="1" connectable="0">
          <mxGeometry x="-0.4275" y="2" relative="1" as="geometry">
            <mxPoint x="49" y="2" as="offset" />
          </mxGeometry>
        </mxCell>
        <mxCell id="tpP_tcnSKTiBDktZdVf1-66" value="" style="html=1;verticalAlign=bottom;endArrow=block;edgeStyle=elbowEdgeStyle;elbow=vertical;curved=0;rounded=0;" parent="1" source="tpP_tcnSKTiBDktZdVf1-27" target="aM9ryv3xv72pqoxQDRHE-2" edge="1">
          <mxGeometry relative="1" as="geometry">
            <mxPoint x="350" y="560" as="sourcePoint" />
            <Array as="points">
              <mxPoint x="210" y="560" />
            </Array>
            <mxPoint x="105" y="560" as="targetPoint" />
          </mxGeometry>
        </mxCell>
        <mxCell id="tpP_tcnSKTiBDktZdVf1-67" value="sportEvents.json" style="edgeLabel;html=1;align=center;verticalAlign=middle;resizable=0;points=[];" parent="tpP_tcnSKTiBDktZdVf1-66" vertex="1" connectable="0">
          <mxGeometry x="0.0255" y="-1" relative="1" as="geometry">
            <mxPoint y="1" as="offset" />
          </mxGeometry>
        </mxCell>
        <mxCell id="tpP_tcnSKTiBDktZdVf1-69" value="" style="html=1;verticalAlign=bottom;endArrow=block;edgeStyle=elbowEdgeStyle;elbow=vertical;curved=0;rounded=0;" parent="1" source="aM9ryv3xv72pqoxQDRHE-2" target="tpP_tcnSKTiBDktZdVf1-68" edge="1">
          <mxGeometry relative="1" as="geometry">
            <mxPoint x="100" y="760" as="sourcePoint" />
            <Array as="points">
              <mxPoint x="225.5" y="760" />
            </Array>
            <mxPoint x="355" y="760" as="targetPoint" />
            <mxPoint as="offset" />
          </mxGeometry>
        </mxCell>
        <mxCell id="tpP_tcnSKTiBDktZdVf1-70" value="getTeamStatistics() -&amp;gt; SportEventStatisticsTotals" style="edgeLabel;html=1;align=center;verticalAlign=middle;resizable=0;points=[];" parent="tpP_tcnSKTiBDktZdVf1-69" vertex="1" connectable="0">
          <mxGeometry x="-0.4275" y="2" relative="1" as="geometry">
            <mxPoint x="72" y="2" as="offset" />
          </mxGeometry>
        </mxCell>
        <mxCell id="tpP_tcnSKTiBDktZdVf1-71" value="" style="html=1;verticalAlign=bottom;endArrow=block;edgeStyle=elbowEdgeStyle;elbow=horizontal;curved=0;rounded=0;" parent="1" source="tpP_tcnSKTiBDktZdVf1-68" target="aM9ryv3xv72pqoxQDRHE-2" edge="1">
          <mxGeometry relative="1" as="geometry">
            <mxPoint x="365" y="800" as="sourcePoint" />
            <Array as="points">
              <mxPoint x="215" y="800" />
            </Array>
            <mxPoint x="100" y="800" as="targetPoint" />
          </mxGeometry>
        </mxCell>
        <mxCell id="tpP_tcnSKTiBDktZdVf1-72" value="teamStatistics.json" style="edgeLabel;html=1;align=center;verticalAlign=middle;resizable=0;points=[];" parent="tpP_tcnSKTiBDktZdVf1-71" vertex="1" connectable="0">
          <mxGeometry x="0.0255" y="-1" relative="1" as="geometry">
            <mxPoint y="1" as="offset" />
          </mxGeometry>
        </mxCell>
        <mxCell id="tpP_tcnSKTiBDktZdVf1-79" value="" style="html=1;verticalAlign=bottom;endArrow=block;edgeStyle=elbowEdgeStyle;elbow=vertical;curved=0;rounded=0;" parent="1" source="aM9ryv3xv72pqoxQDRHE-2" target="tpP_tcnSKTiBDktZdVf1-81" edge="1">
          <mxGeometry relative="1" as="geometry">
            <mxPoint x="105" y="920" as="sourcePoint" />
            <Array as="points">
              <mxPoint x="240.5" y="920" />
            </Array>
            <mxPoint x="350" y="920" as="targetPoint" />
            <mxPoint as="offset" />
          </mxGeometry>
        </mxCell>
        <mxCell id="tpP_tcnSKTiBDktZdVf1-80" value="getStandings() -&amp;gt; Standing[]" style="edgeLabel;html=1;align=center;verticalAlign=middle;resizable=0;points=[];" parent="tpP_tcnSKTiBDktZdVf1-79" vertex="1" connectable="0">
          <mxGeometry x="-0.4275" y="2" relative="1" as="geometry">
            <mxPoint x="49" y="2" as="offset" />
          </mxGeometry>
        </mxCell>
        <mxCell id="tpP_tcnSKTiBDktZdVf1-82" value="" style="html=1;verticalAlign=bottom;endArrow=block;edgeStyle=elbowEdgeStyle;elbow=horizontal;curved=0;rounded=0;" parent="1" target="aM9ryv3xv72pqoxQDRHE-2" edge="1" source="tpP_tcnSKTiBDktZdVf1-81">
          <mxGeometry relative="1" as="geometry">
            <mxPoint x="380" y="960" as="sourcePoint" />
            <Array as="points">
              <mxPoint x="220" y="960" />
            </Array>
            <mxPoint x="105" y="960" as="targetPoint" />
          </mxGeometry>
        </mxCell>
        <mxCell id="tpP_tcnSKTiBDktZdVf1-83" value="standings.json" style="edgeLabel;html=1;align=center;verticalAlign=middle;resizable=0;points=[];" parent="tpP_tcnSKTiBDktZdVf1-82" vertex="1" connectable="0">
          <mxGeometry x="0.0255" y="-1" relative="1" as="geometry">
            <mxPoint y="1" as="offset" />
          </mxGeometry>
        </mxCell>
      </root>
    </mxGraphModel>
  </diagram>
</mxfile>
